<svg width="148" height="124" viewBox="0 0 148 124" fill="none" xmlns="http://www.w3.org/2000/svg">
<g clip-path="url(#clip0_960_1635)">
<path d="M71.8008 121.958C104.828 129.887 138.029 109.542 145.958 76.5145C153.888 43.4875 133.542 10.286 100.515 2.35689C67.4876 -5.5722 34.2861 14.7737 26.357 47.8007C18.4279 80.8278 38.7738 114.029 71.8008 121.958Z" fill="#D9C8C8"/>
<path d="M78.3369 94.7319C96.3272 99.051 114.413 87.9683 118.732 69.9779C123.051 51.9876 111.968 33.9022 93.9777 29.5831C75.9874 25.264 57.902 36.3467 53.5829 54.3371C49.2638 72.3274 60.3465 90.4128 78.3369 94.7319Z" fill="#ECE2E2"/>
<path d="M86.9702 59.956C89.7444 61.1799 93.5468 49.2628 91.188 46.7441C90.3323 45.8066 89.1416 45.9738 88.3385 47.1407C84.7674 52.1405 84.072 58.6675 86.9702 59.956Z" fill="#B52B2B"/>
<path d="M74.1576 59.0067C75.542 60.2107 81.3213 61.8422 81.8 61.1552C82.8787 59.5664 78.5394 57.165 74.3028 56.9497C73.1266 56.9114 73.0632 58.0467 74.1576 59.0067Z" fill="#B52B2B"/>
<path d="M82.7884 76.21C84.931 76.7244 87.6058 67.3258 85.909 65.2449C85.2023 64.4128 83.4064 64.0514 82.8776 64.6566C79.4028 68.529 79.3601 75.387 82.7884 76.21Z" fill="#B52B2B"/>
<path d="M96.2407 65.6326C99.3499 66.6231 100.541 66.4558 100.182 65.0449C99.7816 63.5192 90.8128 60.2154 90.0585 61.3243C89.2066 62.5493 91.482 64.1066 96.2407 65.6326Z" fill="#B52B2B"/>
<path d="M39.1535 54.4721C40.2276 54.7299 41.3073 54.0683 41.5652 52.9942C41.823 51.9202 41.1614 50.8405 40.0873 50.5826C39.0133 50.3248 37.9335 50.9864 37.6757 52.0605C37.4178 53.1345 38.0795 54.2142 39.1535 54.4721Z" fill="#7A6565"/>
<path d="M131.529 76.6498C132.603 76.9077 133.682 76.246 133.94 75.172C134.198 74.0979 133.536 73.0182 132.462 72.7603C131.388 72.5025 130.309 73.1641 130.051 74.2382C129.793 75.3122 130.454 76.392 131.529 76.6498Z" fill="#7A6565"/>
<path d="M49.8475 32.4835C49.5268 32.0402 49.0794 31.6099 48.505 31.1924C47.9307 30.775 47.3873 30.4851 46.8748 30.3227C46.3601 30.1464 45.916 30.0771 45.5425 30.1147C45.1609 30.1464 44.7879 30.277 44.4233 30.5065C44.0646 30.7278 43.7662 30.9683 43.528 31.2279C43.2877 31.4736 43.0293 31.7865 42.753 32.1666L42.5237 32.4821L49.1364 37.2887L49.3657 36.9732C49.642 36.593 49.864 36.2537 50.0315 35.9551C50.1968 35.6426 50.3295 35.2816 50.4293 34.872C50.527 34.4485 50.5361 34.0533 50.4566 33.6865C50.369 33.3138 50.166 32.9128 49.8475 32.4835ZM40.5938 32.841L41.6874 31.3365C43.8746 28.3274 46.4323 27.8871 49.3605 30.0155C50.1694 30.6034 50.7838 31.2293 51.2038 31.8931C51.6216 32.5429 51.8405 33.2027 51.8605 33.8725C51.8784 34.5283 51.773 35.175 51.5445 35.8124C51.3138 36.436 50.9604 37.0753 50.4841 37.7305L49.3904 39.2351L40.5938 32.841Z" fill="#7A6565"/>
<path d="M59.0403 28.1834L52.8486 19.2432L58.1757 15.5537L58.9443 16.6636L54.7887 19.5417L56.6334 22.2052L60.5424 19.4979L61.3111 20.6077L57.402 23.3151L59.4432 26.2622L63.5988 23.3841L64.3675 24.4939L59.0403 28.1834Z" fill="#7A6565"/>
<path d="M72.4255 15.5368C71.6188 15.583 70.8996 15.4391 70.268 15.105C69.6337 14.7613 69.2089 14.1991 68.9935 13.4182C68.7515 12.541 68.8864 11.7517 69.3983 11.0503C69.9199 10.3462 70.6674 9.8599 71.6411 9.5913C72.5279 9.3466 73.3731 9.3832 74.1765 9.7009C74.9773 10.0091 75.565 10.6353 75.9397 11.5797L74.5805 11.9547C74.3438 11.3976 73.9761 11.0426 73.4775 10.8897C72.9885 10.7341 72.4693 10.7321 71.9198 10.8837C71.3896 11.03 70.969 11.2913 70.6578 11.6676C70.344 12.0342 70.2576 12.473 70.3986 12.9839C70.622 13.7937 71.2717 14.1746 72.3477 14.1267L73.4526 14.0708C74.4971 14.0213 75.364 14.1556 76.0534 14.4737C76.7498 14.7795 77.2244 15.3903 77.477 16.3061C77.7403 17.2604 77.6178 18.1137 77.1096 18.866C76.5987 19.6086 75.8275 20.1222 74.796 20.4067C73.726 20.7019 72.7527 20.6333 71.8761 20.2009C71.0065 19.7561 70.3992 19.0212 70.0541 17.996L71.4134 17.621C71.6723 18.2965 72.0767 18.7658 72.6265 19.0291C73.1833 19.2801 73.8039 19.3111 74.4884 19.1223C75.0571 18.9654 75.5075 18.6803 75.8396 18.2672C76.1787 17.8417 76.2711 17.3494 76.1168 16.7902C75.8615 15.8648 75.0371 15.4335 73.6436 15.4964L72.4255 15.5368Z" fill="#7A6565"/>
<path d="M86.0941 9.01584L86.185 7.66895L93.0843 8.13424L92.9935 9.48125L90.2547 9.29644L89.7045 17.4529L92.4433 17.6377L92.3524 18.9846L85.4531 18.5192L85.544 17.1723L88.2828 17.357L88.8329 9.20054L86.0941 9.01584Z" fill="#7A6565"/>
<path d="M106.744 13.1004C105.953 12.7624 105.205 12.8452 104.5 13.3488C103.809 13.8472 103.19 14.7354 102.644 16.0136C102.102 17.2826 101.879 18.351 101.975 19.2188C102.085 20.0814 102.545 20.6856 103.354 21.0314C104.908 21.6956 106.054 21.1633 106.793 19.4346L106.929 19.1173L104.625 18.1329L105.156 16.8915L108.659 18.3888L106.443 23.575L105.45 23.1506L105.931 21.8718C105.421 22.2518 104.914 22.4703 104.411 22.5272C103.921 22.5789 103.378 22.4771 102.78 22.2216C101.539 21.6911 100.81 20.8252 100.595 19.6239C100.38 18.4227 100.612 17.0267 101.292 15.4359C101.972 13.8451 102.835 12.7294 103.881 12.0889C104.94 11.4431 106.09 11.3855 107.331 11.9161C108.26 12.313 108.899 12.9288 109.25 13.7636C109.609 14.6023 109.649 15.5654 109.369 16.6529L108.017 16.0752C108.409 14.6225 107.985 13.6309 106.744 13.1004Z" fill="#7A6565"/>
<path d="M117.577 32.1535L116.004 30.7165L119.699 21.5149L113.436 28.3689L112.384 27.4076L119.72 19.3799L121.292 20.8168L117.618 29.9963L123.861 23.1644L124.913 24.1257L117.577 32.1535Z" fill="#7A6565"/>
<path d="M122.355 38.2924L131.931 33.1377L135.002 38.8435L133.814 39.4834L131.418 35.0323L128.565 36.5681L130.818 40.755L129.63 41.3949L127.376 37.208L124.219 38.9073L126.615 43.3583L125.427 43.9982L122.355 38.2924Z" fill="#7A6565"/>
<path d="M128.868 57.0095L133.068 54.1868C133.031 54.0205 132.985 53.7595 132.928 53.404L132.736 52.1891L128.217 52.9058L127.994 51.4984L138.735 49.7949L139.151 52.4171C139.252 53.0591 139.295 53.6143 139.278 54.0827C139.273 54.5594 139.193 55.0125 139.038 55.4421C138.895 55.8799 138.632 56.2305 138.248 56.4938C137.866 56.767 137.364 56.9529 136.742 57.0516C135.231 57.2913 134.17 56.7963 133.56 55.5667L129.122 58.6095L128.868 57.0095ZM137.843 52.7915L137.625 51.4137L134.069 51.9777L134.288 53.3554C134.353 53.7703 134.421 54.1037 134.492 54.3558C134.572 54.6063 134.687 54.8514 134.836 55.0909C134.997 55.3388 135.21 55.5024 135.476 55.5818C135.752 55.6596 136.087 55.6671 136.482 55.6045C136.808 55.5528 137.072 55.4653 137.276 55.3419C137.489 55.217 137.644 55.076 137.74 54.9189C137.848 54.7702 137.912 54.5676 137.932 54.3113C137.964 54.0633 137.967 53.8299 137.943 53.611C137.93 53.4005 137.896 53.1273 137.843 52.7915Z" fill="#7A6565"/>
<path d="M39.3228 73.8884C39.8617 73.9831 40.4825 73.9802 41.1853 73.8797C41.8882 73.7792 42.48 73.6088 42.9608 73.3683C43.453 73.1363 43.8199 72.8768 44.0617 72.5897C44.3134 72.3011 44.4902 71.9476 44.592 71.529C44.6952 71.1202 44.7418 70.7398 44.7319 70.3877C44.7332 70.044 44.7007 69.6396 44.6342 69.1743L44.579 68.7882L36.4862 69.9451L36.5414 70.3312C36.6079 70.7965 36.6851 71.1946 36.7728 71.5255C36.8718 71.8649 37.0281 72.2163 37.2417 72.5797C37.4666 72.9516 37.7353 73.2415 38.0479 73.4494C38.3703 73.6558 38.7953 73.8022 39.3228 73.8884ZM45.7137 67.1865L45.9769 69.0278C46.5034 72.7103 44.9748 74.8078 41.3913 75.3201C40.4013 75.4616 39.5245 75.4405 38.7608 75.2567C38.0084 75.0814 37.3918 74.7604 36.9109 74.2938C36.4414 73.8356 36.0665 73.2983 35.7865 72.6817C35.5177 72.0736 35.326 71.3686 35.2114 70.5668L34.9482 68.7255L45.7137 67.1865Z" fill="#7A6565"/>
<path d="M38.4756 84.0753L48.3134 79.4404L51.0752 85.3023L49.854 85.8777L47.6995 81.3048L44.7685 82.6857L46.7951 86.9872L45.5739 87.5626L43.5473 83.2611L40.3042 84.789L42.4586 89.3619L41.2374 89.9369L38.4756 84.0753Z" fill="#7A6565"/>
<path d="M47.8594 99.2411L53.5981 89.3911L54.6282 90.5221L49.7729 98.5131L58.193 94.4371L59.2231 95.5681L48.8794 100.361L47.8594 99.2411Z" fill="#7A6565"/>
<path d="M57.6045 107.983L63.1388 98.6221L68.717 101.919L68.0299 103.082L63.6785 100.509L62.0296 103.298L66.1228 105.718L65.4358 106.88L61.3426 104.46L59.5182 107.546L63.8696 110.119L63.1826 111.281L57.6045 107.983Z" fill="#7A6565"/>
<path d="M75.6684 104.501L73.4448 113.762L78.6373 115.009L78.3221 116.322L71.7441 114.742L74.2828 104.168L75.6684 104.501Z" fill="#7A6565"/>
<path d="M86.3993 107.499C87.0334 106.427 88.0092 105.85 89.3266 105.767C90.644 105.685 91.6793 106.136 92.4324 107.12C93.1949 108.095 93.6294 109.43 93.7359 111.127C93.8424 112.823 93.5786 114.208 92.9445 115.279C92.3203 116.351 91.3496 116.927 90.0321 117.01C88.7147 117.093 87.6745 116.642 86.9113 115.658C86.1582 114.673 85.7283 113.332 85.6219 111.636C85.5154 109.939 85.7745 108.56 86.3993 107.499ZM92.2688 111.219C92.089 108.354 91.1358 106.976 89.4092 107.085C87.6826 107.193 86.9092 108.679 87.089 111.544C87.2694 114.418 88.2229 115.801 89.9495 115.693C91.6761 115.584 92.4492 114.093 92.2688 111.219Z" fill="#7A6565"/>
<path d="M98.459 104.509L100.957 103.566C101.556 103.34 102.093 103.19 102.568 103.118C103.052 103.042 103.524 103.046 103.983 103.129C104.442 103.212 104.849 103.427 105.204 103.774C105.56 104.121 105.852 104.598 106.082 105.206C106.311 105.815 106.407 106.366 106.37 106.861C106.332 107.357 106.169 107.787 105.879 108.153C105.59 108.519 105.238 108.833 104.824 109.096C104.42 109.356 103.918 109.598 103.32 109.825L102.155 110.264L103.633 114.18L102.3 114.683L98.459 104.509ZM101.602 104.765L100.269 105.268L101.678 109.001L103.011 108.498C103.807 108.198 104.359 107.85 104.67 107.455C104.98 107.06 104.992 106.483 104.706 105.726C104.42 104.968 104.03 104.543 103.536 104.452C103.042 104.36 102.397 104.465 101.602 104.765Z" fill="#7A6565"/>
<path d="M116.137 108.047L109.476 99.4509L114.598 95.4819L115.425 96.5489L111.429 99.6449L113.414 102.206L117.172 99.2939L117.999 100.361L114.241 103.274L116.437 106.107L120.432 103.011L121.259 104.078L116.137 108.047Z" fill="#7A6565"/>
<path d="M130.706 93.0298L125.727 92.1298C125.637 92.2748 125.489 92.4938 125.282 92.7888L124.574 93.7948L128.315 96.4278L127.495 97.5928L118.601 91.3338L120.129 89.1628C120.504 88.6308 120.86 88.2028 121.198 87.8789C121.534 87.5406 121.907 87.2712 122.317 87.0707C122.725 86.8562 123.158 86.7881 123.617 86.8663C124.081 86.9362 124.571 87.1525 125.086 87.5151C126.337 88.3958 126.753 89.4898 126.335 90.7968L131.639 91.7048L130.706 93.0298ZM121.328 89.8048L120.526 90.9458L123.47 93.0178L124.272 91.8768C124.514 91.5328 124.698 91.2468 124.823 91.0168C124.94 90.7808 125.028 90.5248 125.088 90.2488C125.145 89.9598 125.106 89.6938 124.97 89.4518C124.827 89.2038 124.592 88.9648 124.264 88.7348C123.995 88.5448 123.744 88.4228 123.512 88.3698C123.272 88.3118 123.063 88.3048 122.884 88.3498C122.703 88.3818 122.516 88.4828 122.323 88.6518C122.128 88.8078 121.963 88.9728 121.828 89.1478C121.691 89.3078 121.524 89.5268 121.328 89.8048Z" fill="#7A6565"/>
</g>
<defs>
<clipPath id="clip0_960_1635">
<rect width="148" height="124" fill="white"/>
</clipPath>
</defs>
</svg>
