<svg width="149" height="149" viewBox="0 0 149 149" fill="none" xmlns="http://www.w3.org/2000/svg">
<circle cx="74.1577" cy="74.1576" r="61.5" transform="rotate(13.5 74.1577 74.1576)" fill="#E9E1E1"/>
<circle cx="74.1573" cy="74.1575" r="33.5" transform="rotate(13.5 74.1573 74.1575)" fill="#F9F6F6"/>
<path d="M74.9698 71.9559C77.744 73.1798 81.5464 61.2627 79.1876 58.744C78.3319 57.8065 77.1412 57.9737 76.3381 59.1406C72.767 64.1404 72.0716 70.6674 74.9698 71.9559Z" fill="#B52B2B"/>
<path d="M62.1577 71.0068C63.5421 72.2108 69.3214 73.8423 69.8001 73.1553C70.8788 71.5665 66.5395 69.1651 62.3029 68.9498C61.1267 68.9115 61.0633 70.0468 62.1577 71.0068Z" fill="#B52B2B"/>
<path d="M70.7888 88.2098C72.9314 88.7242 75.6062 79.3256 73.9094 77.2447C73.2027 76.4126 71.4068 76.0512 70.878 76.6564C67.4032 80.5288 67.3605 87.3868 70.7888 88.2098Z" fill="#B52B2B"/>
<path d="M84.2404 77.6328C87.3496 78.6233 88.5406 78.456 88.182 77.0451C87.7813 75.5194 78.8125 72.2156 78.0582 73.3245C77.2063 74.5495 79.4817 76.1068 84.2404 77.6328Z" fill="#B52B2B"/>
<circle cx="27.6204" cy="64.5274" r="2" transform="rotate(13.5 27.6204 64.5274)" fill="#7A6565"/>
<circle cx="119.995" cy="86.7051" r="2" transform="rotate(13.5 119.995 86.7051)" fill="#7A6565"/>
<path d="M37.8471 44.4834C37.5264 44.0401 37.079 43.6098 36.5046 43.1923C35.9303 42.7749 35.3869 42.485 34.8744 42.3226C34.3597 42.1463 33.9157 42.077 33.5422 42.1146C33.1606 42.1463 32.7875 42.2769 32.4229 42.5064C32.0642 42.7277 31.7658 42.9682 31.5276 43.2278C31.2873 43.4735 31.0289 43.7864 30.7526 44.1665L30.5233 44.482L37.136 49.2886L37.3653 48.9731C37.6416 48.5929 37.8636 48.2536 38.0311 47.955C38.1964 47.6425 38.3291 47.2815 38.4289 46.8719C38.5266 46.4484 38.5357 46.0532 38.4562 45.6864C38.3686 45.3137 38.1656 44.9127 37.8471 44.4834ZM28.5934 44.8409L29.687 43.3364C31.8742 40.3273 34.4319 39.887 37.3601 42.0154C38.169 42.6033 38.7834 43.2292 39.2034 43.893C39.6212 44.5428 39.8401 45.2026 39.8601 45.8724C39.878 46.5282 39.7726 47.1749 39.5441 47.8123C39.3134 48.4359 38.96 49.0752 38.4837 49.7304L37.3901 51.235L28.5934 44.8409Z" fill="#7A6565"/>
<path d="M47.0406 40.1834L40.8489 31.2432L46.176 27.5537L46.9446 28.6636L42.789 31.5417L44.6337 34.2052L48.5427 31.4979L49.3114 32.6077L45.4023 35.3151L47.4435 38.2622L51.5991 35.3841L52.3678 36.4939L47.0406 40.1834Z" fill="#7A6565"/>
<path d="M60.4255 27.537C59.6188 27.5832 58.8996 27.4393 58.268 27.1052C57.6337 26.7615 57.2089 26.1993 56.9935 25.4184C56.7515 24.5412 56.8864 23.7519 57.3983 23.0505C57.9199 22.3464 58.6674 21.8601 59.6411 21.5915C60.5279 21.3468 61.3731 21.3834 62.1765 21.7011C62.9773 22.0093 63.565 22.6355 63.9397 23.5799L62.5805 23.9549C62.3438 23.3978 61.9761 23.0428 61.4775 22.8899C60.9885 22.7343 60.4693 22.7323 59.9198 22.8839C59.3896 23.0302 58.969 23.2915 58.6578 23.6678C58.344 24.0344 58.2576 24.4732 58.3986 24.9841C58.622 25.7939 59.2717 26.1748 60.3477 26.1269L61.4526 26.071C62.4971 26.0215 63.364 26.1558 64.0534 26.4739C64.7498 26.7797 65.2244 27.3905 65.477 28.3063C65.7403 29.2606 65.6178 30.1139 65.1096 30.8662C64.5987 31.6088 63.8275 32.1224 62.796 32.4069C61.726 32.7021 60.7527 32.6335 59.8761 32.2011C59.0065 31.7563 58.3992 31.0214 58.0541 29.9962L59.4134 29.6212C59.6723 30.2967 60.0767 30.766 60.6265 31.0293C61.1833 31.2803 61.8039 31.3113 62.4884 31.1225C63.0571 30.9656 63.5075 30.6805 63.8396 30.2674C64.1787 29.8419 64.2711 29.3496 64.1168 28.7904C63.8615 27.865 63.0371 27.4337 61.6436 27.4966L60.4255 27.537Z" fill="#7A6565"/>
<path d="M74.0943 21.0159L74.1852 19.669L81.0845 20.1343L80.9937 21.4813L78.2549 21.2965L77.7047 29.453L80.4435 29.6378L80.3526 30.9847L73.4533 30.5193L73.5442 29.1724L76.283 29.3571L76.8331 21.2006L74.0943 21.0159Z" fill="#7A6565"/>
<path d="M94.7437 25.1004C93.9529 24.7624 93.2052 24.8452 92.5006 25.3488C91.8091 25.8472 91.1903 26.7354 90.644 28.0136C90.1017 29.2826 89.8788 30.351 89.9756 31.2188C90.0854 32.0814 90.5449 32.6856 91.3541 33.0314C92.9082 33.6956 94.0546 33.1633 94.7934 31.4346L94.929 31.1173L92.6256 30.1329L93.1561 28.8915L96.6596 30.3888L94.4431 35.575L93.4499 35.1506L93.9312 33.8718C93.4208 34.2518 92.9142 34.4703 92.4113 34.5272C91.9216 34.5789 91.3779 34.4771 90.7802 34.2216C89.5388 33.6911 88.8105 32.8252 88.5953 31.6239C88.3801 30.4227 88.6124 29.0267 89.2923 27.4359C89.9722 25.8451 90.835 24.7294 91.8809 24.0889C92.9399 23.4431 94.0901 23.3855 95.3315 23.9161C96.2602 24.313 96.8996 24.9288 97.2497 25.7636C97.609 26.6023 97.6487 27.5654 97.3688 28.6529L96.0171 28.0752C96.4096 26.6225 95.9851 25.6309 94.7437 25.1004Z" fill="#7A6565"/>
<path d="M105.577 44.1534L104.004 42.7164L107.699 33.5148L101.436 40.3688L100.384 39.4075L107.72 31.3798L109.292 32.8167L105.618 41.9962L111.861 35.1643L112.913 36.1256L105.577 44.1534Z" fill="#7A6565"/>
<path d="M110.355 50.2924L119.931 45.1377L123.002 50.8435L121.814 51.4834L119.418 47.0323L116.565 48.5681L118.818 52.755L117.63 53.3949L115.376 49.208L112.219 50.9073L114.615 55.3583L113.427 55.9982L110.355 50.2924Z" fill="#7A6565"/>
<path d="M116.868 69.0093L121.068 66.1866C121.031 66.0203 120.985 65.7593 120.928 65.4038L120.736 64.1889L116.217 64.9056L115.994 63.4982L126.735 61.7947L127.151 64.4169C127.252 65.0589 127.295 65.6141 127.278 66.0825C127.273 66.5592 127.193 67.0123 127.038 67.4419C126.895 67.8797 126.632 68.2303 126.248 68.4936C125.866 68.7668 125.364 68.9527 124.742 69.0514C123.231 69.2911 122.17 68.7961 121.56 67.5665L117.122 70.6093L116.868 69.0093ZM125.843 64.7913L125.625 63.4135L122.069 63.9775L122.288 65.3552C122.353 65.7701 122.421 66.1035 122.492 66.3556C122.572 66.6061 122.687 66.8512 122.836 67.0907C122.997 67.3386 123.21 67.5022 123.476 67.5816C123.752 67.6594 124.087 67.6669 124.482 67.6043C124.808 67.5526 125.072 67.4651 125.276 67.3417C125.489 67.2168 125.644 67.0758 125.74 66.9187C125.848 66.77 125.912 66.5674 125.932 66.3111C125.964 66.0631 125.967 65.8297 125.943 65.6108C125.93 65.4003 125.896 65.1271 125.843 64.7913Z" fill="#7A6565"/>
<path d="M27.3228 85.8885C27.8617 85.9832 28.4825 85.9803 29.1853 85.8798C29.8882 85.7793 30.48 85.6089 30.9608 85.3684C31.453 85.1364 31.8199 84.8769 32.0617 84.5898C32.3134 84.3012 32.4902 83.9477 32.592 83.5291C32.6952 83.1203 32.7418 82.7399 32.7319 82.3878C32.7332 82.0441 32.7007 81.6397 32.6342 81.1744L32.579 80.7883L24.4862 81.9452L24.5414 82.3313C24.6079 82.7966 24.6851 83.1947 24.7728 83.5256C24.8718 83.865 25.0281 84.2164 25.2417 84.5798C25.4666 84.9517 25.7353 85.2416 26.0479 85.4495C26.3703 85.6559 26.7953 85.8023 27.3228 85.8885ZM33.7137 79.1866L33.9769 81.0279C34.5034 84.7104 32.9748 86.8079 29.3913 87.3202C28.4013 87.4617 27.5245 87.4406 26.7608 87.2568C26.0084 87.0815 25.3918 86.7605 24.9109 86.2939C24.4414 85.8357 24.0665 85.2984 23.7865 84.6818C23.5177 84.0737 23.326 83.3687 23.2114 82.5669L22.9482 80.7256L33.7137 79.1866Z" fill="#7A6565"/>
<path d="M26.4757 96.0754L36.3135 91.4405L39.0753 97.3024L37.8541 97.8778L35.6996 93.3049L32.7686 94.6858L34.7952 98.9873L33.574 99.5627L31.5474 95.2612L28.3043 96.7891L30.4587 101.362L29.2375 101.937L26.4757 96.0754Z" fill="#7A6565"/>
<path d="M35.8596 111.241L41.5983 101.391L42.6284 102.522L37.7731 110.513L46.1932 106.437L47.2233 107.568L36.8796 112.361L35.8596 111.241Z" fill="#7A6565"/>
<path d="M45.6046 119.983L51.1389 110.622L56.7171 113.919L56.03 115.082L51.6786 112.509L50.0297 115.298L54.1229 117.718L53.4359 118.88L49.3427 116.46L47.5183 119.546L51.8697 122.119L51.1827 123.281L45.6046 119.983Z" fill="#7A6565"/>
<path d="M63.6687 116.501L61.4451 125.762L66.6376 127.009L66.3224 128.322L59.7444 126.742L62.2831 116.168L63.6687 116.501Z" fill="#7A6565"/>
<path d="M74.3995 119.499C75.0336 118.427 76.0094 117.85 77.3268 117.767C78.6442 117.685 79.6795 118.136 80.4326 119.12C81.1951 120.095 81.6296 121.43 81.7361 123.127C81.8426 124.823 81.5788 126.208 80.9447 127.279C80.3205 128.351 79.3498 128.927 78.0323 129.01C76.7149 129.093 75.6747 128.642 74.9115 127.658C74.1584 126.673 73.7285 125.332 73.6221 123.636C73.5156 121.939 73.7747 120.56 74.3995 119.499ZM80.269 123.219C80.0892 120.354 79.136 118.976 77.4094 119.085C75.6828 119.193 74.9094 120.679 75.0892 123.544C75.2696 126.418 76.2231 127.801 77.9497 127.693C79.6763 127.584 80.4494 126.093 80.269 123.219Z" fill="#7A6565"/>
<path d="M86.4586 116.509L88.9566 115.566C89.5553 115.34 90.0922 115.19 90.5672 115.118C91.0516 115.042 91.5233 115.046 91.9823 115.129C92.4413 115.212 92.8485 115.427 93.2039 115.774C93.5593 116.121 93.8517 116.598 94.0813 117.206C94.3109 117.815 94.4069 118.366 94.3694 118.861C94.3318 119.357 94.1683 119.787 93.8789 120.153C93.5894 120.519 93.2378 120.833 92.8241 121.096C92.4197 121.356 91.9181 121.598 91.3193 121.825L90.1546 122.264L91.6327 126.18L90.2995 126.683L86.4586 116.509ZM89.6017 116.765L88.2686 117.268L89.6778 121.001L91.011 120.498C91.8062 120.198 92.359 119.85 92.6695 119.455C92.9799 119.06 92.9921 118.483 92.706 117.726C92.42 116.968 92.0299 116.543 91.5358 116.452C91.0416 116.36 90.397 116.465 89.6017 116.765Z" fill="#7A6565"/>
<path d="M104.137 120.047L97.4758 111.451L102.598 107.482L103.425 108.549L99.4291 111.645L101.414 114.206L105.172 111.294L105.999 112.361L102.241 115.274L104.437 118.107L108.432 115.011L109.259 116.078L104.137 120.047Z" fill="#7A6565"/>
<path d="M118.706 105.03L113.727 104.13C113.637 104.275 113.489 104.494 113.282 104.789L112.574 105.795L116.315 108.428L115.495 109.593L106.601 103.334L108.129 101.163C108.504 100.631 108.86 100.203 109.198 99.8791C109.534 99.5408 109.907 99.2714 110.317 99.0709C110.725 98.8564 111.158 98.7883 111.617 98.8665C112.081 98.9364 112.571 99.1527 113.086 99.5153C114.337 100.396 114.753 101.49 114.335 102.797L119.639 103.705L118.706 105.03ZM109.328 101.805L108.526 102.946L111.47 105.018L112.272 103.877C112.514 103.533 112.698 103.247 112.823 103.017C112.94 102.781 113.028 102.525 113.088 102.249C113.145 101.96 113.106 101.694 112.97 101.452C112.827 101.204 112.592 100.965 112.264 100.735C111.995 100.545 111.744 100.423 111.512 100.37C111.272 100.312 111.063 100.305 110.884 100.35C110.703 100.382 110.516 100.483 110.323 100.652C110.128 100.808 109.963 100.973 109.828 101.148C109.691 101.308 109.524 101.527 109.328 101.805Z" fill="#7A6565"/>
</svg>
