<svg width="59" height="59" viewBox="0 0 59 59" fill="none" xmlns="http://www.w3.org/2000/svg">
<circle cx="29.5" cy="29.5" r="29.5" fill="#ECE2E2"/>
<path d="M29.7191 27.1514C33.8074 28.9401 39.4109 11.5229 35.9348 7.84177C34.6738 6.47147 32.9191 6.7159 31.7356 8.42135C26.4729 15.7288 25.4481 25.2683 29.7191 27.1514Z" fill="#B52B2B"/>
<path d="M10.8391 25.7644C12.8793 27.524 21.3961 29.9085 22.1015 28.9045C23.6912 26.5824 17.2965 23.0726 11.0531 22.758C9.31976 22.702 9.22637 24.3613 10.8391 25.7644Z" fill="#B52B2B"/>
<path d="M23.5576 50.9072C26.7152 51.6591 30.657 37.9225 28.1564 34.8813C27.1149 33.6651 24.4683 33.1369 23.689 34.0214C18.5683 39.6811 18.5054 49.7043 23.5576 50.9072Z" fill="#B52B2B"/>
<path d="M43.3806 35.4488C47.9625 36.8964 49.7177 36.6519 49.1893 34.5898C48.5988 32.3599 35.3816 27.5313 34.27 29.152C33.0145 30.9424 36.3678 33.2185 43.3806 35.4488Z" fill="#B52B2B"/>
</svg>
