<svg width="16" height="14" viewBox="0 0 16 14" fill="none" xmlns="http://www.w3.org/2000/svg">
<path d="M5.50003 1.00153C4.15079 0.879404 4.23851 0.819641 3.56077 2.46677C2.03808 6.1699 1.97896 6.44772 2.66526 6.57522C3.90732 6.82093 4.22558 6.40404 5.98678 2.20618C6.40112 1.21715 6.28887 1.07071 5.50003 1.00153Z" fill="#B52B2B"/>
<path d="M14.9305 12.5298C14.354 11.1653 14.3319 11.206 9.98715 10.737C6.77897 10.3942 5.95513 10.5164 6.18154 11.2546C6.44102 12.0581 6.58 12.1123 10.6494 12.711C14.5001 13.2859 15.2883 13.3655 14.9305 12.5298Z" fill="#B52B2B"/>
<path d="M14.7264 3.61078C13.4715 2.82372 13.4767 2.86965 9.64872 4.97761C6.8241 6.53691 6.21932 7.10952 6.82821 7.58437C7.50161 8.09371 7.64656 8.05841 11.3234 6.21473C14.8075 4.47706 15.4988 4.0901 14.7264 3.61078Z" fill="#B52B2B"/>
</svg>
