<svg width="35" height="37" viewBox="0 0 35 37" fill="none" xmlns="http://www.w3.org/2000/svg">
<path d="M17.3126 16.994C20.0868 18.2178 23.8891 6.30081 21.5304 3.78213C20.6747 2.84456 19.484 3.0118 18.6809 4.17869C15.1098 9.1785 14.4144 15.7055 17.3126 16.994Z" fill="#B52B2B"/>
<path d="M4.50048 16.0449C5.88491 17.2488 11.6641 18.8804 12.1428 18.1934C13.2216 16.6046 8.88227 14.2032 4.64567 13.9879C3.46949 13.9496 3.40612 15.0849 4.50048 16.0449Z" fill="#B52B2B"/>
<path d="M13.1315 33.2479C15.2742 33.7623 17.949 24.3636 16.2521 22.2828C15.5454 21.4507 13.7495 21.0893 13.2207 21.6945C9.74597 25.5669 9.70327 32.4249 13.1315 33.2479Z" fill="#B52B2B"/>
<path d="M26.5832 22.6709C29.6923 23.6614 30.8834 23.4941 30.5248 22.0832C30.1241 20.5575 21.1553 17.2537 20.401 18.3626C19.5491 19.5876 21.8245 21.1449 26.5832 22.6709Z" fill="#B52B2B"/>
</svg>
