<svg width="41" height="45" viewBox="0 0 41 45" fill="none" xmlns="http://www.w3.org/2000/svg">
<path d="M11.0183 36.339C10.1789 35.7234 9.11563 36.0032 7.94041 37.1411C6.31749 38.6894 6.26154 39.2863 7.71658 39.3236C9.02238 39.361 11.7645 36.8799 11.0183 36.339Z" fill="#B52B2B"/>
<path d="M10.9253 33.1865C10.9253 32.7015 9.19043 32.1978 8.50023 32.4963C7.34366 32.9813 0.833359 38.0925 0.367003 38.2791C-0.770907 38.7268 0.982593 39.6408 2.28839 39.2864C3.48227 38.9506 10.9253 33.7088 10.9253 33.1865Z" fill="#B52B2B"/>
<path d="M5.55298 14.1405C6.95205 14.1591 7.3251 13.6741 6.44835 12.9466C4.75081 11.5102 3.42639 11.0252 2.38175 11.4729C1.15057 11.9766 3.6689 14.1032 5.55298 14.1405Z" fill="#B52B2B"/>
<path d="M27.3598 16.1179C28.3671 16.1366 30.2512 14.9614 30.1393 14.3831C29.9341 13.3384 27.8448 13.3384 26.7255 14.3831C25.513 15.5023 25.7182 16.0993 27.3598 16.1179Z" fill="#B52B2B"/>
<path d="M9.6943 13.5995C11.5224 13.9352 11.3918 13.0399 9.13468 9.83134C4.97477 3.91793 3.57569 2.42559 2.58701 2.83599C1.26256 3.35831 7.79157 13.2265 9.6943 13.5995Z" fill="#B52B2B"/>
<path d="M38.0675 10.7827C37.1534 11.1744 30.3446 15.6888 28.6471 17.0132C28.274 17.3117 29.5612 17.834 30.5125 17.7594C31.4639 17.6848 31.8183 17.4983 35.6424 14.9799C37.8996 13.4876 39.9889 12.1258 40.2687 11.9579C41.6118 11.1184 39.6718 10.0925 38.0675 10.7827Z" fill="#B52B2B"/>
<path d="M30.6424 34.8278C29.635 33.8951 28.236 33.3728 27.8442 33.7832C27.6017 34.0257 28.1241 34.6226 29.0754 35.1636C30.6051 36.0403 31.7057 35.7978 30.6424 34.8278Z" fill="#B52B2B"/>
<path d="M28.0501 24.736C29.0574 24.2137 29.0388 24.0645 27.9009 22.9452C24.4125 19.5315 21.5024 11.6594 20.8495 3.93653C20.607 1.15705 18.0141 -1.47321 16.6337 5.14906C14.8802 13.5062 10.739 22.0125 7.99681 22.8893C6.15004 23.4862 6.35525 24.736 8.2953 24.736C11.168 24.736 12.9215 27.329 14.0407 33.2983C14.7683 37.1784 15.9994 43.1851 16.1114 43.5022C16.3912 44.2484 18.9468 45.4609 19.6184 40.4989C20.5511 33.4849 24.2073 26.6947 28.0501 24.736ZM24.8229 23.8779C21.7449 26.0605 18.7043 30.295 17.9208 33.5222C17.7343 34.2684 17.5291 34.1564 17.3798 33.2424C16.6523 28.5788 15.104 25.7807 12.4924 24.307L11.4851 23.7287C14.1713 20.8746 15.3838 19.8486 18.4991 11.0998C18.6297 10.7267 18.6483 10.7827 19.3199 13.0399C20.5697 17.3303 22.1367 20.3896 24.1513 22.4975C25.1587 23.5795 25.1773 23.6354 24.8229 23.8779Z" fill="#B52B2B"/>
<path d="M24.4874 35.1637C23.9464 35.4808 24.0956 35.7793 25.6812 37.794C28.4607 41.3196 29.9344 42.3642 30.8485 41.4502C31.2775 41.0211 31.0537 40.6294 29.0204 38.1297C26.502 35.0331 25.6626 34.4921 24.4874 35.1637Z" fill="#B52B2B"/>
</svg>
