<svg width="20" height="44" viewBox="0 0 20 44" fill="none" xmlns="http://www.w3.org/2000/svg">
<path d="M18.1932 20.4632C15.9341 17.8656 14.1449 14.5144 12.9702 10.7071C12.0666 7.77232 10.7653 2.35887 10.7653 1.50619C10.7653 0.177617 8.59662 -0.357764 8.59662 2.22008C8.59662 3.54866 7.80142 11.2624 5.3797 15.8826C3.08448 20.2848 2.19892 21.4152 0.590451 22.1688C-0.331254 22.5852 -0.186691 22.9023 1.11454 23.398C4.33147 24.6274 5.7773 27.582 8.68698 38.8453C10.3858 45.389 11.434 45.1907 12.3196 38.1512C13.1871 31.1514 16.404 23.1997 18.6992 22.3272C19.4583 22.0496 19.4041 21.8711 18.1932 20.4632ZM10.6027 33.1145L10.2593 34.8992C10.1147 34.4827 8.23517 25.7379 4.92789 23.398C4.02426 22.7635 3.8616 22.5057 4.38571 22.5057C6.06647 22.5057 8.68698 17.6078 9.48218 12.8884C9.86171 10.7269 9.91592 10.6476 10.3858 11.996C11.3617 14.8713 12.9702 17.588 15.1751 20.1063L16.6209 21.7722C16.4221 22.03 12.3557 23.7748 10.6027 33.1145Z" fill="#B52B2B"/>
</svg>
