<svg width="41" height="44" viewBox="0 0 41 44" fill="none" xmlns="http://www.w3.org/2000/svg">
<path d="M31.3385 12.4075C38.9951 5.99794 41.9243 2.74966 40.5322 2.22762C39.8072 1.9666 39.4881 2.02457 38.212 2.63362C35.7468 3.85171 26.7852 11.5084 26.7852 12.4075C26.7852 13.6546 29.8014 13.6836 31.3385 12.4075Z" fill="#B52B2B"/>
<path d="M11.2409 12.6393C12.198 12.0013 12.14 11.8853 8.42769 7.85397C6.45554 5.67866 4.83153 4.31555 3.64244 3.79351C2.01832 3.06846 1.23523 4.05459 1.87328 4.86666C7.32561 11.8853 9.58778 13.7414 11.2409 12.6393Z" fill="#B52B2B"/>
<path d="M37.0521 22.0941C35.2829 21.5721 26.2345 18.7008 25.5675 18.4398C25.2485 18.3238 25.0164 17.7438 24.9004 16.7577C23.9434 9.39112 22.435 1.82136 21.7679 0.980299C21.2749 0.34225 19.5927 0.545266 19.1287 1.27032C18.6647 1.99538 16.5185 9.33312 15.2424 14.6695L14.4016 18.1498C-2.07176 23.3702 -2.97089 23.2542 4.48269 25.5454L11.0664 27.5755C14.8077 28.7356 14.8944 28.7643 15.0974 29.6924C15.3874 31.0265 17.2726 37.5233 17.9976 40.6265C19.5347 47.297 22.6673 43.1787 25.4225 30.7658L26.0605 27.9236C26.4085 27.8655 28.6124 27.6625 38.1252 25.6034C40.3003 25.1103 39.6623 22.8482 37.0521 22.0941ZM32.9338 23.5152C32.7017 23.7182 26.3503 25.2553 25.1032 25.2553C23.595 25.2553 23.247 25.9804 21.5359 32.7959C20.4048 37.2913 20.3181 37.378 19.68 34.7678C18.897 31.4905 17.3016 27.6625 17.0985 26.7635C16.9245 25.9514 15.3004 25.3714 9.00692 23.8632C5.84582 23.1092 5.35279 22.8482 6.54173 22.5001C8.02085 22.0651 15.1264 19.7449 15.9385 19.7449C16.7215 19.7449 17.3886 19.1649 17.6206 18.2948L19.8828 9.47813C20.2888 7.94101 20.2891 7.94101 21.4202 13.9445C22.7253 20.702 22.58 20.4117 24.6681 20.8467C27.2783 21.3978 33.1948 23.2832 32.9338 23.5152Z" fill="#B52B2B"/>
<path d="M27.6553 31.2296C27.6553 31.8676 35.3119 39.6112 36.3849 40.0463C38.6471 40.9743 39.2272 39.7559 37.429 37.8128C32.5857 32.5054 27.6553 29.1994 27.6553 31.2296Z" fill="#B52B2B"/>
<path d="M5.32323 33.0857C-0.245203 36.856 -0.883282 37.726 1.90093 37.726C3.26404 37.726 11.8776 31.7516 11.6166 30.9685C11.2105 29.7504 9.26738 30.3885 5.32323 33.0857Z" fill="#B52B2B"/>
</svg>
