<svg width="34" height="44" viewBox="0 0 34 44" fill="none" xmlns="http://www.w3.org/2000/svg">
<path d="M23.8943 9.58766C25.8712 9.9471 26.4778 1.67997 24.5683 0.42192C23.8718 -0.0498481 23.1305 0.242109 22.7935 1.11825C21.2659 4.8924 21.8275 9.20575 23.8943 9.58766Z" fill="#B52B2B"/>
<path d="M15.492 10.9579C16.5703 11.5195 20.5466 11.6768 20.7488 11.1601C21.1981 9.96943 18.0305 9.09331 15.2673 9.61001C14.5035 9.76726 14.6383 10.5086 15.492 10.9579Z" fill="#B52B2B"/>
<path d="M23.715 20.708C25.1752 20.708 25.4448 14.238 24.0295 13.1597C23.4454 12.7328 22.2323 12.7778 21.9852 13.2495C20.3452 16.2823 21.3786 20.708 23.715 20.708Z" fill="#B52B2B"/>
<path d="M23.2881 23.696C22.6366 24.033 22.4793 24.7294 22.2771 28.4362C22.0749 32.5024 25.5121 36.0743 26.1411 27.0658C26.3208 24.37 25.0179 22.8423 23.2881 23.696Z" fill="#B52B2B"/>
<path d="M30.7461 11.8118C32.9027 11.9691 33.6443 11.677 33.195 10.8234C32.7008 9.90225 26.4105 9.16085 26.096 9.99206C25.7366 10.9132 27.4437 11.5647 30.7461 11.8118Z" fill="#B52B2B"/>
<path d="M4.05741 22.3927C1.85583 22.1681 0.84485 21.9434 0.260756 22.3703C-0.817571 23.1566 1.60869 24.2574 4.59655 24.3697C7.51707 24.4595 7.0453 22.7073 4.05741 22.3927Z" fill="#B52B2B"/>
<path d="M18.9299 32.2774C17.4022 32.0977 14.9086 31.9854 14.4818 32.0977C12.6171 32.547 15.0659 33.9399 18.0986 34.187C21.9402 34.5015 22.7265 32.7492 18.9299 32.2774Z" fill="#B52B2B"/>
<path d="M21.7597 36.3883C20.0523 39.5559 21.0632 43.3974 23.6018 43.3974C24.6127 43.3974 25.9831 38.3652 25.3092 37.0847C24.8149 36.1636 22.1416 35.6469 21.7597 36.3883Z" fill="#B52B2B"/>
<path d="M9.26871 25.7404C8.25777 25.0889 6.95479 25.044 6.68521 25.673C6.34824 26.4817 6.03372 30.4132 6.28084 30.8849C6.73014 31.7835 9.4035 32.3227 9.69554 31.5813C10.1224 30.4132 9.83033 26.0998 9.26871 25.7404Z" fill="#B52B2B"/>
<path d="M33.3519 33.3558C32.2511 32.3674 26.4102 31.8731 26.0732 32.7268C25.6913 33.7378 27.174 34.3218 30.6336 34.5016C33.9135 34.6813 34.5426 34.4117 33.3519 33.3558Z" fill="#B52B2B"/>
<path d="M7.2023 13.6763C6.14644 13.8561 5.80946 19.2477 6.77546 20.4159C7.58421 21.3819 10.1228 22.3928 10.0554 19.3825C9.96551 15.0692 9.87565 13.2495 7.2023 13.6763Z" fill="#B52B2B"/>
<path d="M15.9642 22.3478C14.8858 21.8985 10.5276 21.921 10.3704 22.3927C9.98844 23.3587 11.7857 24.0776 14.5938 24.0776C17.4244 24.0776 18.0984 23.2464 15.9642 22.3478Z" fill="#B52B2B"/>
</svg>
