<svg width="38" height="39" viewBox="0 0 38 39" fill="none" xmlns="http://www.w3.org/2000/svg">
<path d="M19.3126 17.994C22.0868 19.2178 25.8891 7.30081 23.5304 4.78213C22.6747 3.84456 21.484 4.0118 20.6809 5.17869C17.1098 10.1785 16.4144 16.7055 19.3126 17.994Z" fill="#B52B2B"/>
<path d="M6.50048 17.0449C7.88491 18.2488 13.6641 19.8804 14.1428 19.1934C15.2216 17.6046 10.8823 15.2032 6.64567 14.9879C5.46949 14.9496 5.40612 16.0849 6.50048 17.0449Z" fill="#B52B2B"/>
<path d="M15.1315 34.2479C17.2742 34.7623 19.949 25.3636 18.2521 23.2828C17.5454 22.4507 15.7495 22.0893 15.2207 22.6945C11.746 26.5669 11.7033 33.4249 15.1315 34.2479Z" fill="#B52B2B"/>
<path d="M28.5832 23.6709C31.6923 24.6614 32.8834 24.4941 32.5248 23.0832C32.1241 21.5575 23.1553 18.2537 22.401 19.3626C21.5491 20.5876 23.8245 22.1449 28.5832 23.6709Z" fill="#B52B2B"/>
</svg>
