<svg width="33" height="44" viewBox="0 0 33 44" fill="none" xmlns="http://www.w3.org/2000/svg">
<path d="M27.3858 36.3264C27.1263 36.9651 27.2261 39.4803 27.5055 39.8395C27.9247 40.3585 28.7031 40.2585 28.8429 39.6797C29.282 37.9032 27.9646 34.8693 27.3858 36.3264Z" fill="#B52B2B"/>
<path d="M5.66839 11.6757C5.54863 12.5539 5.60855 14.8293 5.64847 16.1866C5.66843 16.6058 5.98777 16.9252 6.38698 16.9651C7.54468 17.0649 7.78421 14.8693 7.04568 11.2565C6.86604 10.3583 5.82807 10.6577 5.66839 11.6757Z" fill="#B52B2B"/>
<path d="M10.2996 9.81907C12.0162 9.81907 12.9743 9.55965 12.9743 9.0806C12.9743 8.46184 11.5372 8.30212 9.38147 8.64144C7.0661 9.04065 7.68486 9.81907 10.2996 9.81907Z" fill="#B52B2B"/>
<path d="M5.62899 0.97684C5.14995 1.17644 5.28967 7.36404 5.76871 7.62352C7.0861 8.32213 7.66494 7.54374 7.50526 5.38805C7.12602 0.897019 6.94638 0.437916 5.62899 0.97684Z" fill="#B52B2B"/>
<path d="M1.67663 8.60172C0.339303 8.7614 0 8.90104 0 9.3202C0 9.97889 3.99203 10.1386 4.93015 9.5198C6.04792 8.78128 4.31137 8.28236 1.67663 8.60172Z" fill="#B52B2B"/>
<path d="M27.6046 33.7314C27.9639 33.6914 28.2434 33.412 28.2434 33.0527C28.3432 30.6974 28.423 29.1405 26.9659 29.7194C26.6865 29.8391 26.6266 31.3162 26.8462 32.8731C26.9859 33.7713 27.0058 33.7912 27.6046 33.7314Z" fill="#B52B2B"/>
<path d="M29.1819 34.5901C28.5631 34.8496 28.623 35.3284 29.3017 35.4681C29.9005 35.6079 32.2558 35.2687 32.7148 34.9893C33.5532 34.4504 30.3795 34.0911 29.1819 34.5901Z" fill="#B52B2B"/>
<path d="M26.4476 34.5698C25.8089 34.3302 25.6692 34.3302 24.6512 34.6296C23.1143 35.0887 23.753 35.7075 25.5295 35.468C26.767 35.3083 27.2061 34.8692 26.4476 34.5698Z" fill="#B52B2B"/>
<path d="M24.1322 25.1683C24.6312 24.33 24.4715 23.2721 23.7729 22.6134C22.0363 20.9766 20.3597 18.1822 19.3816 15.288C18.8228 13.6712 17.3457 7.18426 17.3457 6.36589C17.3457 5.32796 16.208 4.80896 15.4894 5.52753C15.3297 5.68721 15.1301 6.38587 15.0703 7.08448C14.691 10.5975 12.6152 18.5615 11.4375 20.9567C10.8587 22.1343 9.66106 23.2721 8.40357 23.831C7.32572 24.31 7.32572 24.3898 8.66305 25.5475C11.3177 27.8629 13.2738 32.4338 14.6511 39.5795C15.8886 45.9867 18.0643 43.9108 17.8248 42.6134C17.3258 40.0985 20.2599 31.6553 23.6132 26.0266L24.1322 25.1683ZM21.5773 24.3499C19.6411 26.825 17.5453 30.6972 16.5473 33.6713L16.0882 35.0685L15.8287 33.7711C14.0124 24.9687 10.3197 24.5296 9.92054 24.1503C10.3597 23.6912 14.3317 21.1962 16.1681 15.4477C16.7269 13.7112 16.6271 13.7112 17.1661 15.3479C18.184 18.4417 19.6012 20.9567 21.2379 22.6333L22.1761 23.5914L21.5773 24.3499Z" fill="#B52B2B"/>
</svg>
