<svg width="40" height="44" viewBox="0 0 40 44" fill="none" xmlns="http://www.w3.org/2000/svg">
<path d="M19.2262 19.7765C23.3899 20.5336 24.6674 3.12176 20.6456 0.472127C19.1789 -0.521486 17.6175 0.0934191 16.9078 1.9387C13.6904 9.8876 14.8732 18.9722 19.2262 19.7765Z" fill="#B52B2B"/>
<path d="M1.52978 22.6628C3.8009 23.8457 12.1756 24.1769 12.6015 23.0887C13.5478 20.581 6.87637 18.7357 1.05664 19.824C-0.552072 20.1552 -0.268182 21.7166 1.52978 22.6628Z" fill="#B52B2B"/>
<path d="M18.8479 43.1976C21.9234 43.1976 22.4911 29.5709 19.5103 27.2997C18.2801 26.4008 15.7251 26.4954 15.2046 27.489C11.7506 33.8765 13.9271 43.1976 18.8479 43.1976Z" fill="#B52B2B"/>
<path d="M33.6568 24.4606C38.199 24.7918 39.7609 24.1767 38.8146 22.3788C37.7737 20.4388 24.5255 18.8773 23.8631 20.6279C23.1061 22.568 26.7015 23.9402 33.6568 24.4606Z" fill="#B52B2B"/>
</svg>
