<svg width="168" height="61" viewBox="0 0 168 61" fill="none" xmlns="http://www.w3.org/2000/svg">
<g clip-path="url(#clip0_943_1616)">
<path d="M19.2653 45.3357C18.9565 46.5117 17.878 47.3789 16.5921 47.3789C15.0666 47.3789 13.8268 46.1576 13.8268 44.6547C13.8268 43.1518 15.0666 41.9305 16.5921 41.9305C17.878 41.9305 18.9611 42.7977 19.2653 43.9736H33.1658C32.8017 35.2606 25.5242 28.3093 16.5921 28.3093C7.66004 28.3093 0 35.6284 0 44.6547C0 53.681 7.42959 61.0001 16.5921 61.0001C25.7547 61.0001 32.8017 54.0487 33.1658 45.3357H19.2653Z" fill="#7A6565"/>
<path d="M49.7762 28.3092C47.0016 28.3092 44.3838 28.9857 42.0885 30.1708L49.0388 42.0303C49.2738 41.9667 49.5227 41.9304 49.7762 41.9304C51.3018 41.9304 52.5416 43.1517 52.5416 44.6546C52.5416 46.1575 51.3018 47.3788 49.7762 47.3788C48.2507 47.3788 47.0109 46.1575 47.0109 44.6546C47.0109 43.8918 47.3289 43.2062 47.8405 42.7113L40.8902 30.8518C36.2582 33.7531 33.1841 38.8474 33.1841 44.6501C33.1841 53.6763 40.6137 60.9954 49.7762 60.9954C58.9388 60.9954 66.3684 53.6763 66.3684 44.6501C66.3684 35.6238 58.9388 28.3047 49.7762 28.3047V28.3092Z" fill="#7A6565"/>
<path d="M33.1844 0C24.0219 0 16.5923 7.31909 16.5923 16.3454C16.5923 22.1525 19.6664 27.2468 24.2984 30.1481L31.2487 18.2886C30.7371 17.7937 30.4191 17.1081 30.4191 16.3454C30.4191 14.8425 31.6589 13.6211 33.1844 13.6211C34.71 13.6211 35.9498 14.8425 35.9498 16.3454C35.9498 17.8482 34.71 19.0696 33.1844 19.0696C32.9263 19.0696 32.682 19.0333 32.447 18.9697L25.4967 30.8292C27.7966 32.0142 30.4098 32.6907 33.1844 32.6907C42.347 32.6907 49.7766 25.3716 49.7766 16.3454C49.7766 7.31909 42.347 0 33.1844 0Z" fill="#7A6565"/>
<path d="M71.6782 55.7151C71.6782 53.6174 73.1439 52.0238 75.3838 52.0238C77.3057 52.0238 78.5363 53.1271 78.7437 54.6935H76.5729C76.4346 54.0669 76.0475 53.6583 75.4114 53.6583C74.4436 53.6583 73.9596 54.4483 73.9596 55.7151C73.9596 56.9818 74.4436 57.7446 75.4114 57.7446C76.1166 57.7446 76.5452 57.336 76.642 56.546H78.799C78.7437 58.1533 77.444 59.4064 75.4391 59.4064C73.1577 59.4064 71.6782 57.8127 71.6782 55.7151ZM82.9885 52.0238C80.7209 52.0238 79.2 53.6174 79.2 55.7151C79.2 57.8127 80.7209 59.4064 82.9885 59.4064C85.2561 59.4064 86.7632 57.8127 86.7632 55.7151C86.7632 53.6174 85.2699 52.0238 82.9885 52.0238ZM82.9747 57.8264C81.993 57.8264 81.4814 56.9818 81.4814 55.7151C81.4814 54.4483 81.993 53.5902 82.9747 53.5902C83.9564 53.5902 84.4818 54.4483 84.4818 55.7151C84.4818 56.9818 83.9564 57.8264 82.9747 57.8264ZM87.3854 52.2145H89.5424V53.2088H89.5839C90.0264 52.4869 90.7039 52.0101 91.7271 52.0101C92.6534 52.0101 93.3586 52.4869 93.7181 53.236H93.7458C94.2988 52.3915 95.0593 52.0101 95.9719 52.0101C97.5758 52.0101 98.3777 53.0862 98.3777 54.6526V59.1885H96.124V55.0476C96.124 54.2985 95.8059 53.8626 95.1284 53.8626C94.4094 53.8626 94.0085 54.4483 94.0085 55.2792V59.1885H91.7547V55.0476C91.7547 54.2985 91.4367 53.8626 90.7592 53.8626C90.0817 53.8626 89.6392 54.4483 89.6392 55.2792V59.1885H87.3854V52.2145ZM99.3963 52.2145H101.553V53.2088H101.595C102.037 52.4869 102.715 52.0101 103.738 52.0101C104.664 52.0101 105.369 52.4869 105.729 53.236H105.757C106.31 52.3915 107.07 52.0101 107.983 52.0101C109.587 52.0101 110.389 53.0862 110.389 54.6526V59.1885H108.135V55.0476C108.135 54.2985 107.817 53.8626 107.139 53.8626C106.42 53.8626 106.019 54.4483 106.019 55.2792V59.1885H103.766V55.0476C103.766 54.2985 103.448 53.8626 102.77 53.8626C102.093 53.8626 101.65 54.4483 101.65 55.2792V59.1885H99.3963V52.2145ZM111.352 56.7912V52.2145H113.592V56.328C113.592 57.0908 113.937 57.5131 114.656 57.5131C115.431 57.5131 115.901 56.941 115.901 56.1101V52.2145H118.155V59.1885H115.998V58.3303H115.956C115.445 59.0114 114.822 59.3928 113.841 59.3928C112.209 59.3928 111.352 58.344 111.352 56.7912ZM119.233 52.2145H121.404V53.1679H121.445C121.971 52.4188 122.648 52.0101 123.63 52.0101C125.179 52.0101 126.091 53.0998 126.091 54.6526V59.1885H123.837V55.1021C123.837 54.3666 123.464 53.8626 122.731 53.8626C121.998 53.8626 121.487 54.4756 121.487 55.3337V59.1885H119.233V52.2145ZM129.493 50.4301C129.493 51.1248 128.953 51.6151 128.248 51.6151C127.543 51.6151 127.004 51.1248 127.004 50.4301C127.004 49.7354 127.543 49.245 128.248 49.245C128.953 49.245 129.493 49.7354 129.493 50.4301ZM129.368 52.2145V59.1885H127.114V52.2145H129.368ZM130.059 55.7151C130.059 53.6174 131.525 52.0238 133.793 52.0238C135.742 52.0238 136.973 53.1271 137.166 54.6935H134.996C134.885 54.0669 134.484 53.6583 133.82 53.6583C132.825 53.6583 132.341 54.4483 132.341 55.7151C132.341 56.9818 132.825 57.7446 133.82 57.7446C134.553 57.7446 134.968 57.2815 135.065 56.546H137.222C137.084 58.1124 135.825 59.4064 133.807 59.4064C131.511 59.4064 130.059 57.8127 130.059 55.7151ZM144.49 58.0988V54.5845C144.49 53.7128 144.2 53.0317 143.591 52.5958C143.066 52.2145 142.333 52.0238 141.241 52.0238C139.042 52.0238 137.991 53.1134 137.95 54.4211H140.024C140.093 53.8354 140.48 53.5221 141.241 53.5221C142.001 53.5221 142.278 53.8217 142.278 54.2712C142.278 54.7616 141.808 54.8842 140.425 55.0476C138.89 55.2247 137.632 55.7015 137.632 57.2407C137.632 58.6164 138.641 59.3656 140.121 59.3656C141.227 59.3656 141.863 58.9978 142.292 58.4121H142.319C142.375 58.7662 142.444 59.0386 142.554 59.1885H144.739V59.0931C144.545 58.9705 144.49 58.6572 144.49 58.0988ZM142.333 56.6958C142.333 57.445 141.739 57.9489 140.826 57.9489C140.231 57.9489 139.803 57.731 139.803 57.1725C139.803 56.6141 140.176 56.4098 141.102 56.2327C141.6 56.1373 142.029 56.0147 142.333 55.8649V56.6958ZM145.859 57.3496V53.6038H144.919V52.2145H145.859V50.0078H148.057V52.2145H149.343V53.6038H148.057V56.8729C148.057 57.4177 148.362 57.5539 148.845 57.5539C149.039 57.5539 149.26 57.5403 149.343 57.5403V59.1612C149.15 59.2157 148.721 59.2702 148.113 59.2702C146.799 59.2702 145.859 58.8479 145.859 57.3496ZM152.468 50.4301C152.468 51.1248 151.929 51.6151 151.224 51.6151C150.519 51.6151 149.979 51.1248 149.979 50.4301C149.979 49.7354 150.519 49.245 151.224 49.245C151.929 49.245 152.468 49.7354 152.468 50.4301ZM152.344 52.2145V59.1885H150.09V52.2145H152.344ZM156.754 52.0238C154.487 52.0238 152.966 53.6174 152.966 55.7151C152.966 57.8127 154.487 59.4064 156.754 59.4064C159.022 59.4064 160.529 57.8127 160.529 55.7151C160.529 53.6174 159.036 52.0238 156.754 52.0238ZM156.741 57.8264C155.759 57.8264 155.247 56.9818 155.247 55.7151C155.247 54.4483 155.759 53.5902 156.741 53.5902C157.722 53.5902 158.248 54.4483 158.248 55.7151C158.248 56.9818 157.722 57.8264 156.741 57.8264ZM161.151 52.2145H163.322V53.1679H163.364C163.889 52.4188 164.567 52.0101 165.548 52.0101C167.097 52.0101 168.009 53.0998 168.009 54.6526V59.1885H165.756V55.1021C165.756 54.3666 165.382 53.8626 164.649 53.8626C163.917 53.8626 163.405 54.4756 163.405 55.3337V59.1885H161.151V52.2145ZM71.6874 44.6729C71.6874 42.5752 73.1531 40.9816 75.393 40.9816C77.3149 40.9816 78.5455 42.0849 78.7529 43.6513H76.5821C76.4439 43.0247 76.0567 42.6161 75.4207 42.6161C74.4528 42.6161 73.9689 43.4061 73.9689 44.6729C73.9689 45.9396 74.4528 46.7024 75.4207 46.7024C76.1258 46.7024 76.5545 46.2938 76.6513 45.5038H78.8082C78.7529 47.1111 77.4532 48.3642 75.4483 48.3642C73.1669 48.3642 71.6874 46.7705 71.6874 44.6729ZM79.2092 44.6729C79.2092 42.5752 80.7302 40.9816 82.9977 40.9816C85.2653 40.9816 86.7725 42.5752 86.7725 44.6729C86.7725 46.7705 85.2792 48.3642 82.9977 48.3642C80.7163 48.3642 79.2092 46.7705 79.2092 44.6729ZM84.491 44.6729C84.491 43.4061 83.9656 42.548 82.9839 42.548C82.0022 42.548 81.4906 43.4061 81.4906 44.6729C81.4906 45.9396 82.0022 46.7842 82.9839 46.7842C83.9656 46.7842 84.491 45.9396 84.491 44.6729ZM87.3947 41.1722H89.5655V42.1257H89.6069C90.1324 41.3766 90.8099 40.9679 91.7916 40.9679C93.3402 40.9679 94.2527 42.0576 94.2527 43.6104V48.1463H91.999V44.0599C91.999 43.3244 91.6257 42.8204 90.8928 42.8204C90.16 42.8204 89.6484 43.4334 89.6484 44.2915V48.1463H87.3947V41.1722ZM94.8473 45.8852H96.9766C97.0596 46.5798 97.4744 46.9204 98.1381 46.9204C98.7326 46.9204 99.1059 46.6752 99.1059 46.2257C99.1059 45.5991 98.3178 45.531 97.4329 45.3676C96.2853 45.1632 95.0409 44.8363 95.0409 43.2018C95.0409 41.7307 96.3682 40.9679 97.9583 40.9679C99.8802 40.9679 100.903 41.8261 101.014 43.2018H98.94C98.8571 42.5752 98.4837 42.3845 97.9445 42.3845C97.4744 42.3845 97.1011 42.5888 97.1011 43.0247C97.1011 43.5151 97.8339 43.5832 98.6773 43.7466C99.8388 43.951 101.235 44.2642 101.235 46.0486C101.235 47.5742 99.9217 48.3642 98.1519 48.3642C96.1608 48.3642 94.9164 47.4244 94.8473 45.8852ZM102.203 46.3074V42.5616H101.374V41.1722H102.203V38.9656H104.402V41.1722H105.591V42.5616H104.402V45.8307C104.402 46.3755 104.664 46.5117 105.134 46.5117C105.328 46.5117 105.508 46.4981 105.591 46.4981V48.119C105.397 48.1735 104.996 48.228 104.374 48.228C103.116 48.228 102.203 47.8057 102.203 46.3074ZM106.337 41.1722H108.494V42.2619H108.536C109.006 41.4174 109.531 41.0633 110.306 41.0633C110.499 41.0633 110.61 41.0769 110.707 41.1178V43.0247H110.651C110.527 42.9975 110.361 42.9975 110.25 42.9975C109.269 42.9975 108.591 43.6649 108.591 45.0134V48.1463H106.337V41.1722ZM111.37 45.749V41.1722H113.61V45.2858C113.61 46.0486 113.956 46.4709 114.675 46.4709C115.449 46.4709 115.919 45.8988 115.919 45.0679V41.1722H118.173V48.1463H116.016V47.2881H115.975C115.463 47.9692 114.841 48.3506 113.859 48.3506C112.228 48.3506 111.37 47.3018 111.37 45.749ZM118.864 44.6729C118.864 42.5752 120.33 40.9816 122.57 40.9816C124.492 40.9816 125.723 42.0849 125.93 43.6513H123.759C123.621 43.0247 123.234 42.6161 122.598 42.6161C121.63 42.6161 121.146 43.4061 121.146 44.6729C121.146 45.9396 121.63 46.7024 122.598 46.7024C123.303 46.7024 123.731 46.2938 123.828 45.5038H125.985C125.93 47.1111 124.63 48.3642 122.625 48.3642C120.344 48.3642 118.864 46.7705 118.864 44.6729ZM127.133 46.3074V42.5616H126.193V41.1722H127.133V38.9656H129.331V41.1722H130.617V42.5616H129.331V45.8307C129.331 46.3755 129.635 46.5117 130.119 46.5117C130.313 46.5117 130.534 46.4981 130.617 46.4981V48.119C130.424 48.1735 129.995 48.228 129.387 48.228C128.073 48.228 127.133 47.8057 127.133 46.3074ZM133.742 39.3879C133.742 40.0826 133.203 40.5729 132.498 40.5729C131.792 40.5729 131.253 40.0826 131.253 39.3879C131.253 38.6932 131.792 38.2028 132.498 38.2028C133.203 38.2028 133.742 38.6932 133.742 39.3879ZM133.618 41.1722V48.1463H131.364V41.1722H133.618ZM134.046 41.1722H136.369L137.337 44.3187C137.544 45.0134 137.724 45.7217 137.724 45.7217H137.752C137.752 45.7217 137.932 45.0134 138.139 44.3187L139.121 41.1722H141.374L138.927 48.1463H136.494L134.046 41.1722ZM141.07 44.6456C141.07 42.5616 142.55 40.9679 144.707 40.9679C145.716 40.9679 146.518 41.2948 147.126 41.8397C147.97 42.6025 148.385 43.8148 148.371 45.2314H143.283C143.421 46.1712 143.946 46.7569 144.873 46.7569C145.467 46.7569 145.854 46.4981 146.048 46.0622H148.246C148.094 46.6888 147.679 47.2881 147.057 47.7104C146.463 48.119 145.744 48.3506 144.845 48.3506C142.508 48.3506 141.07 46.7569 141.07 44.6456ZM146.089 43.9101C146.006 43.0792 145.481 42.548 144.748 42.548C143.891 42.548 143.448 43.0792 143.296 43.9101H146.089ZM71.7013 33.6307C71.7013 31.533 73.1669 29.9394 75.4068 29.9394C77.3288 29.9394 78.5593 31.0427 78.7667 32.6091H76.5959C76.4577 31.9825 76.0705 31.5739 75.4345 31.5739C74.4666 31.5739 73.9827 32.3639 73.9827 33.6307C73.9827 34.8974 74.4666 35.6602 75.4345 35.6602C76.1397 35.6602 76.5683 35.2516 76.6651 34.4616H78.8221C78.7668 36.0689 77.467 37.322 75.4621 37.322C73.1807 37.322 71.7013 35.7283 71.7013 33.6307ZM83.1637 35.7147C82.2926 35.7147 81.6012 35.2516 81.4353 34.1891H86.7586C86.7725 32.7453 86.3715 31.5466 85.5142 30.7839C84.892 30.239 84.0762 29.9257 82.9977 29.9257C80.7025 29.9257 79.223 31.5194 79.223 33.6034C79.223 35.6875 80.6195 37.3084 83.1084 37.3084C84.0762 37.3084 84.8367 37.0768 85.4451 36.6682C86.0673 36.2459 86.4821 35.6602 86.6342 35.02H84.4357C84.2422 35.4559 83.7997 35.7147 83.1637 35.7147ZM83.0254 31.5058C83.7444 31.5058 84.3666 31.9689 84.4772 32.8679H81.463C81.6289 31.9553 82.1958 31.5058 83.0254 31.5058ZM87.4085 30.13H89.5793V31.0835H89.6208C90.1462 30.3344 90.8237 29.9257 91.8054 29.9257C93.354 29.9257 94.2666 31.0154 94.2666 32.5682V37.1041H92.0128V33.0177C92.0128 32.2822 91.6395 31.7782 90.9067 31.7782C90.1738 31.7782 89.6622 32.3912 89.6622 33.2493V37.1041H87.4085V30.13ZM95.5663 35.2652V31.5194H94.6261V30.13H95.5663V27.9234H97.7647V30.13H99.0506V31.5194H97.7647V34.7885C97.7647 35.3333 98.0689 35.4695 98.5529 35.4695C98.7464 35.4695 98.9677 35.4559 99.0506 35.4559V37.0768C98.8571 37.1313 98.4284 37.1858 97.8201 37.1858C96.5065 37.1858 95.5663 36.7635 95.5663 35.2652ZM103.143 35.7147C102.217 35.7147 101.692 35.129 101.553 34.1891H106.642C106.655 32.7725 106.241 31.5603 105.397 30.7975C104.789 30.2526 103.987 29.9257 102.977 29.9257C100.82 29.9257 99.341 31.5194 99.341 33.6034C99.341 35.6875 100.779 37.3084 103.116 37.3084C104.014 37.3084 104.733 37.0768 105.328 36.6682C105.95 36.2459 106.365 35.6466 106.517 35.02H104.319C104.125 35.4559 103.738 35.7147 103.143 35.7147ZM103.019 31.5058C103.752 31.5058 104.277 32.037 104.36 32.8679H101.567C101.719 32.037 102.162 31.5058 103.019 31.5058ZM107.264 30.13H109.421V31.2197H109.462C109.946 30.3888 110.513 30.0211 111.343 30.0211C111.536 30.0211 111.674 30.0347 111.771 30.0756V31.9825H111.716C111.564 31.9553 111.426 31.9553 111.287 31.9553C110.195 31.9553 109.518 32.6227 109.518 33.9712V37.1041H107.264V30.13ZM115.256 31.5466H114.343V30.13H115.256V29.6261C115.256 28.9041 115.463 28.3729 115.836 28.0051C116.445 27.4194 117.62 27.2832 118.837 27.4058V28.9723C117.979 28.945 117.509 29.0131 117.509 29.7895V30.13H118.837V31.5466H117.509V37.1041H115.256V31.5466ZM122.681 29.9394C120.413 29.9394 118.892 31.533 118.892 33.6307C118.892 35.7283 120.413 37.322 122.681 37.322C124.948 37.322 126.455 35.7283 126.455 33.6307C126.455 31.533 124.962 29.9394 122.681 29.9394ZM122.667 35.742C121.685 35.742 121.173 34.8974 121.173 33.6307C121.173 32.3639 121.685 31.5058 122.667 31.5058C123.648 31.5058 124.174 32.3639 124.174 33.6307C124.174 34.8974 123.648 35.742 122.667 35.742ZM127.147 30.13H129.304V31.2197H129.345C129.843 30.3888 130.424 30.0211 131.281 30.0211C131.488 30.0211 131.627 30.0347 131.723 30.0756V31.9825H131.668C130.285 31.7918 129.4 32.4593 129.4 33.9712V37.1041H127.147V30.13ZM75.5267 16.3228L76.7849 20.736C77.0061 21.5124 77.3656 23.0652 77.3656 23.0652H77.3933C77.3933 23.0652 77.739 21.5124 77.9602 20.736L79.2184 16.3228H82.4262V26.0619H80.2693V20.9812C80.2693 20.4908 80.3246 19.0197 80.3246 19.0197H80.2969C80.2969 19.0197 79.9789 20.3955 79.8545 20.845L78.3612 26.0619H76.3563L74.8906 20.8586C74.7524 20.4091 74.4344 19.0197 74.4344 19.0197H74.4067C74.4067 19.0197 74.462 20.5044 74.462 20.9948V26.0619H72.3603V16.3228H75.5267ZM85.8276 16.3228V26.0619H83.4909V16.3228H85.8276ZM86.6849 18.2706V16.3228H94.8427V18.2706H91.9252V26.0619H89.5885V18.2706H86.6849Z" fill="#7A6565"/>
</g>
<defs>
<clipPath id="clip0_943_1616">
<rect width="168" height="61" fill="white"/>
</clipPath>
</defs>
</svg>
