<svg width="222" height="52" viewBox="0 0 222 52" fill="none" xmlns="http://www.w3.org/2000/svg">
<path d="M2.1416 32.2768C2.1416 30.0326 2.5155 27.8402 3.26329 25.6996C4.04507 23.5244 5.16675 21.5564 6.62834 19.7956C8.08993 18.0002 9.89142 16.5846 12.0328 15.5488C14.1742 14.4785 16.6045 13.9434 19.3238 13.9434C22.5529 13.9434 25.3061 14.7029 27.5834 16.2221C29.8948 17.7067 31.5943 19.6229 32.682 21.9707L29.8778 23.7316C29.096 22.1088 28.1103 20.8314 26.9206 19.8991C25.731 18.9324 24.4563 18.2419 23.0967 17.8276C21.7711 17.4133 20.4454 17.2061 19.1198 17.2061C16.9444 17.2061 15.024 17.6549 13.3584 18.5526C11.6929 19.4158 10.2823 20.5897 9.12663 22.0743C8.00495 23.5244 7.15519 25.1644 6.57735 26.9943C5.99951 28.7897 5.7106 30.6196 5.7106 32.484C5.7106 34.521 6.0505 36.4718 6.73031 38.3362C7.41012 40.2006 8.36185 41.8579 9.58551 43.308C10.8092 44.7236 12.2368 45.8629 13.8683 46.7261C15.5338 47.5547 17.3353 47.969 19.2728 47.969C20.6324 47.969 22.026 47.7274 23.4536 47.244C24.8812 46.7606 26.2068 46.0183 27.4305 45.017C28.6881 44.0158 29.6908 42.721 30.4386 41.1328L33.3958 42.6865C32.648 44.5164 31.4923 46.0701 29.9288 47.3476C28.3652 48.625 26.6147 49.5918 24.6773 50.2478C22.7738 50.9038 20.9043 51.2318 19.0688 51.2318C16.5875 51.2318 14.3102 50.6966 12.2368 49.6263C10.1633 48.5215 8.36185 47.0714 6.83228 45.276C5.3367 43.4461 4.18103 41.409 3.36526 39.1648C2.54949 36.8861 2.1416 34.5901 2.1416 32.2768Z" fill="#7A6565"/>
<path d="M74.4898 22.1262C77.8209 22.1262 80.5401 23.1793 82.6475 25.2854C84.7549 27.357 85.8086 30.378 85.8086 34.3485V50.9212H82.2906V34.7629C82.2906 31.69 81.5258 29.3422 79.9963 27.7195C78.5007 26.0967 76.4443 25.2854 73.827 25.2854C71.1418 25.2854 69.0004 26.1485 67.4028 27.8749C65.8053 29.6012 65.0065 32.1389 65.0065 35.4879V50.9212H61.4375V22.6441H65.0065V27.4605C65.8902 25.7342 67.1649 24.4222 68.8304 23.5245C70.496 22.5923 72.3824 22.1262 74.4898 22.1262Z" fill="#7A6565"/>
<path d="M52.6003 17.3097C51.8865 17.3097 51.2746 17.0507 50.7648 16.5328C50.2549 16.0149 50 15.3762 50 14.6166C50 13.857 50.2549 13.2356 50.7648 12.7522C51.2746 12.2343 51.8865 11.9753 52.6003 11.9753C53.3141 11.9753 53.9259 12.2343 54.4358 12.7522C54.9456 13.2356 55.2005 13.857 55.2005 14.6166C55.2005 15.3762 54.9456 16.0149 54.4358 16.5328C53.9259 17.0507 53.3141 17.3097 52.6003 17.3097ZM54.3848 22.644V50.921H50.8158V22.644H54.3848Z" fill="#7A6565"/>
<path d="M43.7628 12.5969V50.9211H40.1938V12.5969H43.7628Z" fill="#7A6565"/>
<path d="M205.039 12.5969V50.9211H197.901V12.5969H205.039Z" fill="#7A6565"/>
<path d="M217.785 12.5969V50.9211H210.647V12.5969H217.785Z" fill="#7A6565"/>
<path d="M192.292 35.954C192.292 36.9898 192.224 37.922 192.088 38.7506H171.439C171.609 40.8222 172.323 42.4449 173.581 43.6188C174.838 44.7927 176.385 45.3797 178.22 45.3797C180.872 45.3797 182.758 44.223 183.88 41.9098H191.579C190.763 44.6719 189.199 46.9506 186.888 48.746C184.576 50.5068 181.738 51.3872 178.373 51.3872C175.654 51.3872 173.207 50.783 171.031 49.5746C168.89 48.3317 167.207 46.5881 165.984 44.3439C164.794 42.0997 164.199 39.5102 164.199 36.5755C164.199 33.6062 164.794 30.9995 165.984 28.7552C167.173 26.511 168.839 24.7847 170.98 23.5763C173.122 22.3679 175.586 21.7637 178.373 21.7637C181.058 21.7637 183.455 22.3506 185.562 23.5245C187.704 24.6984 189.352 26.3729 190.508 28.5481C191.697 30.6887 192.292 33.1574 192.292 35.954ZM184.899 33.8824C184.865 32.018 184.203 30.5334 182.911 29.4285C181.619 28.2891 180.039 27.7195 178.169 27.7195C176.402 27.7195 174.906 28.2719 173.683 29.3767C172.493 30.447 171.762 31.9489 171.49 33.8824H184.899Z" fill="#7A6565"/>
<path d="M153.101 28.1855V42.0651C153.101 43.0318 153.322 43.7396 153.764 44.1884C154.24 44.6027 155.022 44.8099 156.11 44.8099H159.424V50.9211H154.937C148.921 50.9211 145.912 47.9518 145.912 42.0133V28.1855H142.547V22.2297H145.912V15.1345H153.101V22.2297H159.424V28.1855H153.101Z" fill="#7A6565"/>
<path d="M126.453 21.8154C129.818 21.8154 132.537 22.903 134.611 25.0782C136.684 27.2188 137.721 30.2226 137.721 34.0895V50.9211H130.583V35.0735C130.583 32.7948 130.022 31.0512 128.9 29.8428C127.779 28.5999 126.249 27.9784 124.311 27.9784C122.34 27.9784 120.776 28.5999 119.621 29.8428C118.499 31.0512 117.938 32.7948 117.938 35.0735V50.9211H110.8V22.2297H117.938V25.8032C118.89 24.5603 120.097 23.5935 121.558 22.903C123.054 22.178 124.685 21.8154 126.453 21.8154Z" fill="#7A6565"/>
<path d="M105.689 45.5264H91.3491V50.9211H105.689V45.5264Z" fill="#7A6565"/>
<path d="M105.689 14.2368H91.3491V19.6316H105.689V14.2368Z" fill="#7A6565"/>
<path d="M102.005 14.772V50.921H94.8672V14.772H102.005Z" fill="#7A6565"/>
</svg>
